<svg width="396" height="396" viewBox="0 0 396 396" fill="none" xmlns="http://www.w3.org/2000/svg">
<path d="M36.2614 192.504H0V180.532H12.0625V12.0453H0V0H66.4731V24.0905H72.5228V48.1076H66.4731V36.1358H60.4234V24.0905H54.3737V12.0453H24.162V84.2434H54.3737V60.1529H60.4234V120.306H54.3737V96.2886H24.162V180.532H36.2614V192.504Z" fill="black"/>
<path d="M126.837 12.0453H96.6258V0H126.837V12.0453ZM96.6258 180.532H84.5263V168.487H78.4766V156.441H72.4269V132.351H66.4141V60.1529H72.4269V36.1358H78.4766V24.0905H84.5263V12.0453H96.6258V24.0905H90.576V36.1358H84.5263V60.1529H78.4766V132.351H84.5263V156.441H90.576V168.487H96.6258V180.532ZM138.937 180.532H126.837V168.487H132.887V156.441H138.937V132.351H144.95V60.1529H138.937V36.1358H132.887V24.0905H126.837V12.0453H138.937V24.0905H144.95V36.1358H150.999V60.1529H157.049V132.351H150.999V156.441H144.95V168.487H138.937V180.532ZM126.837 192.504H96.6258V180.532H126.837V192.504Z" fill="black"/>
<path d="M244.637 48.1076H238.588V36.1358H232.575V24.0905H226.525V12.0453H190.264V0H238.588V24.0905H244.637V48.1076ZM190.264 180.532H178.164V168.487H172.114V156.441H166.065V132.351H160.052V60.1529H166.065V36.1358H172.114V24.0905H178.164V12.0453H190.264V24.0905H184.214V36.1358H178.164V60.1529H172.114V132.351H178.164V156.441H184.214V168.487H190.264V180.532ZM238.588 192.504H190.264V180.532H226.525V168.487H232.575V156.441H238.588V144.396H244.637V168.487H238.588V192.504Z" fill="black"/>
<path d="M305.075 192.504H268.814V180.532H262.764V168.487H256.715V144.396H250.665V12.0453H238.639V0H274.864V12.0453H262.764V144.396H268.814V168.487H274.864V180.532H305.075V192.504ZM323.188 144.396H317.175V12.0453H305.075V0H335.287V12.0453H323.188V144.396ZM317.175 168.487H311.125V144.396H317.175V168.487ZM311.125 180.532H305.075V168.487H311.125V180.532Z" fill="black"/>
<path d="M383.626 192.504H335.265V168.487H329.252V144.396H335.265V156.441H341.315V168.487H347.364V180.532H377.576V168.487H383.626V126.328H377.576V114.357H365.514V102.311H353.414V90.266H341.315V78.2207H335.265V66.1755H329.252V24.0905H335.265V12.0453H341.315V0H383.626V12.0453H389.676V36.1358H383.626V24.0905H377.576V12.0453H347.364V24.0905H341.315V54.1302H347.364V66.1755H359.464V78.2207H371.526V90.266H383.626V102.311H389.676V114.357H395.725V168.487H389.676V180.532H383.626V192.504Z" fill="black"/>
<path d="M31.3337 396C22.7626 396 14.8941 389.522 9.27367 380.498C7.0255 376.796 5.33938 377.027 4.77734 382.349L3.51275 392.992H0L0.28102 323.811H3.93428C4.91785 357.361 15.5966 386.283 31.0527 386.283C43.1366 386.283 48.3355 370.78 48.3355 356.435C48.3355 335.149 38.3592 321.498 26.8374 307.152C12.7864 289.568 0.98357 274.991 0.98357 247.689C0.98357 220.155 13.0674 203.496 28.9451 203.496C37.0947 203.496 42.7151 207.661 47.6329 215.297C50.0216 218.767 51.9887 217.842 52.4103 212.751L53.1128 205.81H56.485L58.1712 266.662H54.6584C53.2533 238.203 44.8227 212.983 29.9286 212.983C19.5309 212.983 13.9105 225.477 13.9105 239.822C13.9105 257.869 22.0601 268.975 35.1275 285.172C49.7406 302.988 61.2624 318.952 61.2624 347.412C61.2624 376.565 48.6165 396 31.3337 396Z" fill="black"/>
<path d="M93.8904 217.61H84.7572C74.5 217.61 71.1277 222.701 69.7226 254.63L65.6478 254.167L67.4745 214.14L67.896 207.198H145.317L145.598 214.14L147.425 254.167L143.49 254.63C141.945 222.701 138.713 217.61 128.315 217.61H119.182C116.231 217.61 114.545 220.387 114.545 225.477V368.467C114.545 382.581 116.372 386.745 129.439 386.745V392.298H83.6331V386.745C96.8411 386.745 98.6677 382.581 98.6677 368.467V225.477C98.6677 220.387 96.9816 217.61 93.8904 217.61Z" fill="black"/>
<path d="M190.711 204.422L223.871 369.624C226.822 383.737 229.913 386.745 239.046 386.745V392.298H196.331V386.745C209.96 386.745 210.101 383.043 207.572 369.392L200.827 333.76H163.171L156.286 369.624C153.616 383.043 153.756 386.745 167.105 386.745V392.298H135.35V386.745C144.202 386.745 147.293 383.737 150.103 369.624L182.983 204.422H190.711ZM181.858 237.74L164.997 324.737H199.001L182.42 237.74H181.858Z" fill="black"/>
<path d="M254.983 217.61H245.85C235.593 217.61 232.22 222.701 230.815 254.63L226.74 254.167L228.567 214.14L228.989 207.198H306.41L306.691 214.14L308.517 254.167L304.583 254.63C303.037 222.701 299.806 217.61 289.408 217.61H280.275C277.324 217.61 275.638 220.387 275.638 225.477V368.467C275.638 382.581 277.465 386.745 290.532 386.745V392.298H244.726V386.745C257.934 386.745 259.76 382.581 259.76 368.467V225.477C259.76 220.387 258.074 217.61 254.983 217.61Z" fill="black"/>
<path d="M387.905 207.198L388.327 214.14L390.997 253.936L387.062 254.63C384.955 222.932 381.723 217.61 371.747 217.61H351.654C347.298 217.61 345.05 221.544 345.05 228.485V292.113H362.473C370.763 292.113 373.152 288.642 373.152 264.811H376.384V327.513H373.152C373.152 303.913 370.763 300.442 362.473 300.442H345.05V368.698C345.05 379.573 346.174 381.886 351.654 381.886H371.606C382.145 381.886 386.219 375.176 391.84 339.776L395.774 341.627L388.889 385.588L387.765 392.298H314.278V386.745C327.346 386.745 329.172 382.581 329.172 368.467V231.03C329.172 216.916 327.346 212.751 314.278 212.751V207.198H387.905Z" fill="black"/>
</svg>
